<svg width="220" height="33" viewBox="0 0 220 33" fill="none" xmlns="http://www.w3.org/2000/svg">
<path d="M33 16.5C33 14.5948 31.1271 13.0504 27.3709 13.0504C26.2651 13.0504 24.8688 13.2792 23.4491 13.621C24.6957 12.8583 25.8441 12.0326 26.6259 11.2508C29.282 8.5947 29.5137 6.1791 28.1673 4.83123C26.8209 3.48483 24.4039 3.71657 21.7477 6.3727C20.966 7.15443 20.1403 8.30283 19.3776 9.5495C19.7208 8.12977 19.9481 6.7335 19.9481 5.62763C19.9481 1.8715 18.4037 -0.00143433 16.4985 -0.00143433C14.5933 -0.00143433 13.0489 1.8715 13.0489 5.62763C13.0489 6.7335 13.2777 8.12977 13.6195 9.5495C12.8568 8.30283 12.0311 7.15443 11.2493 6.3727C8.5932 3.71657 6.1776 3.48483 4.82973 4.83123C3.48333 6.17763 3.71507 8.5947 6.3712 11.2508C7.15293 12.0326 8.30133 12.8583 9.548 13.621C8.12827 13.2778 6.732 13.0504 5.62613 13.0504C1.87293 13.0504 0 14.5948 0 16.5C0 18.4052 1.87293 19.9496 5.62907 19.9496C6.73493 19.9496 8.1312 19.7208 9.55093 19.3791C8.30427 20.1418 7.15587 20.9675 6.37413 21.7492C3.718 24.4054 3.48627 26.821 4.83267 28.1688C6.17907 29.5152 8.59613 29.2835 11.2523 26.6274C12.034 25.8456 12.8597 24.6972 13.6224 23.4506C13.2792 24.8703 13.0519 26.2666 13.0519 27.3724C13.0519 31.1286 14.5963 33.0015 16.5015 33.0015C18.4067 33.0015 19.9511 31.1286 19.9511 27.3724C19.9511 26.2666 19.7223 24.8703 19.3805 23.4506C20.1432 24.6972 20.9689 25.8456 21.7507 26.6274C24.4068 29.2835 26.8224 29.5152 28.1703 28.1688C29.5167 26.8224 29.2849 24.4054 26.6288 21.7492C25.8471 20.9675 24.6987 20.1418 23.452 19.3791C24.8717 19.7223 26.268 19.9496 27.3739 19.9496C31.13 19.9496 33.0029 18.4052 33.0029 16.5H33Z" fill="#010101"/>
<path d="M219.389 26.784C217.938 27.7867 216.413 28.288 214.813 28.288C213.469 28.288 212.424 27.872 211.677 27.04C210.952 26.208 210.589 25.0027 210.589 23.424V14.08H207.549V11.68H210.589V7.07199H213.309V11.68H218.685V14.08H213.309V23.328C213.309 24.2667 213.479 24.928 213.821 25.312C214.162 25.696 214.663 25.888 215.325 25.888C216.306 25.888 217.351 25.472 218.461 24.64L219.389 26.784Z" fill="#010101"/>
<path d="M198.367 28.384C196.853 28.384 195.498 28.0213 194.303 27.296C193.109 26.5707 192.181 25.5573 191.519 24.256C190.858 22.9547 190.527 21.4827 190.527 19.84C190.527 18.1973 190.858 16.7253 191.519 15.424C192.181 14.1227 193.109 13.1093 194.303 12.384C195.498 11.6587 196.853 11.296 198.367 11.296C199.903 11.296 201.269 11.6587 202.463 12.384C203.679 13.1093 204.629 14.1227 205.311 15.424C205.994 16.7253 206.335 18.1973 206.335 19.84C206.335 21.4827 205.994 22.9547 205.311 24.256C204.629 25.5573 203.679 26.5707 202.463 27.296C201.269 28.0213 199.903 28.384 198.367 28.384ZM198.367 25.984C199.349 25.984 200.223 25.728 200.991 25.216C201.759 24.6827 202.357 23.9573 202.783 23.04C203.231 22.1013 203.455 21.0347 203.455 19.84C203.455 18.6667 203.231 17.6107 202.783 16.672C202.357 15.7333 201.759 15.008 200.991 14.496C200.223 13.9627 199.349 13.696 198.367 13.696C197.407 13.696 196.554 13.9627 195.807 14.496C195.061 15.008 194.474 15.7333 194.047 16.672C193.621 17.6107 193.407 18.6667 193.407 19.84C193.407 21.0347 193.61 22.1013 194.015 23.04C194.442 23.9573 195.029 24.6827 195.775 25.216C196.543 25.728 197.407 25.984 198.367 25.984Z" fill="#010101"/>
<path d="M180.791 11.296C182.199 11.296 183.468 11.6587 184.599 12.384C185.73 13.088 186.615 14.0907 187.255 15.392C187.895 16.672 188.215 18.144 188.215 19.808C188.215 21.472 187.895 22.9547 187.255 24.256C186.615 25.5573 185.73 26.5707 184.599 27.296C183.49 28.0213 182.231 28.384 180.823 28.384C179.778 28.384 178.807 28.128 177.911 27.616C177.015 27.104 176.3 26.3893 175.767 25.472C175.788 26.112 175.799 26.9547 175.799 28H173.079V5.40799H175.799V12.192C175.799 12.6187 175.778 13.2373 175.735 14.048C176.268 13.1947 176.983 12.5227 177.879 12.032C178.796 11.5413 179.767 11.296 180.791 11.296ZM180.535 25.984C181.964 25.984 183.116 25.4187 183.991 24.288C184.887 23.136 185.335 21.6213 185.335 19.744C185.335 18.5707 185.132 17.5253 184.727 16.608C184.322 15.6907 183.756 14.976 183.031 14.464C182.306 13.952 181.474 13.696 180.535 13.696C179.618 13.696 178.796 13.952 178.071 14.464C177.346 14.976 176.78 15.6907 176.375 16.608C175.97 17.5253 175.767 18.5813 175.767 19.776C175.767 20.992 175.97 22.0693 176.375 23.008C176.78 23.9467 177.346 24.6827 178.071 25.216C178.796 25.728 179.618 25.984 180.535 25.984Z" fill="#010101"/>
<path d="M166.144 14.4H156.896V11.68H166.144V14.4ZM156.896 25.28H154.176V14.4H156.896V25.28ZM166.144 14.4H168.864V25.28H166.144V14.4ZM156.896 25.28H166.144V28H156.896V25.28Z" fill="#010101"/>
<path d="M149.658 25.472H151.578V28H147.77L141.882 18.976H136.442V28H133.402V5.40799H143.45C144.858 5.40799 146.128 5.70666 147.258 6.30399C148.389 6.90132 149.274 7.72266 149.914 8.76799C150.554 9.79199 150.874 10.944 150.874 12.224C150.874 13.8667 150.373 15.2747 149.37 16.448C148.368 17.6 146.981 18.368 145.21 18.752L149.658 25.472ZM136.442 16.416H143.258C144.666 16.416 145.776 16.0427 146.586 15.296C147.418 14.5493 147.834 13.536 147.834 12.256C147.834 11.0187 147.418 9.99466 146.586 9.18399C145.754 8.37332 144.677 7.96799 143.354 7.96799H136.442V16.416Z" fill="#010101"/>
<path d="M112.954 11.296C114.533 11.296 115.898 11.6907 117.05 12.48C118.202 13.2693 119.066 14.368 119.642 15.776C120.218 17.184 120.485 18.7947 120.442 20.608H108.122C108.25 22.4213 108.784 23.776 109.722 24.672C110.682 25.5467 111.93 25.984 113.466 25.984C114.597 25.984 115.472 25.7173 116.09 25.184C116.709 24.6507 117.2 23.8293 117.562 22.72L120.186 23.648C119.61 25.1627 118.789 26.336 117.722 27.168C116.656 27.9787 115.216 28.384 113.402 28.384C110.821 28.384 108.837 27.6053 107.45 26.048C106.085 24.4907 105.402 22.4 105.402 19.776C105.402 18.24 105.722 16.8213 106.362 15.52C107.002 14.2187 107.888 13.1947 109.018 12.448C110.17 11.68 111.482 11.296 112.954 11.296ZM112.954 13.696C111.76 13.696 110.725 14.112 109.85 14.944C108.997 15.7547 108.453 16.8747 108.218 18.304H117.626C117.413 16.832 116.89 15.7013 116.058 14.912C115.248 14.1013 114.213 13.696 112.954 13.696Z" fill="#010101"/>
<path d="M99.5519 11.68V14.4H91.3919V11.68H99.5519ZM91.3919 18.464H88.6719V14.4H91.3919V18.464ZM102.272 14.4V17.12H99.5519V14.4H102.272ZM91.3919 21.184V18.464H99.5519V21.184H91.3919ZM102.272 25.28H99.5519V21.184H102.272V25.28ZM88.6719 25.28V22.56H91.3919V25.28H88.6719ZM91.3919 25.28H99.5519V28H91.3919V25.28Z" fill="#010101"/>
<path d="M83.0218 5.40799V25.6H85.9018V28H80.3018V5.40799H83.0218Z" fill="#010101"/>
<path d="M73.3309 11.68H76.0509V28H73.4909V25.344C72.9789 26.2827 72.2749 27.0293 71.3789 27.584C70.4829 28.1173 69.4802 28.384 68.3709 28.384C66.4722 28.384 65.0215 27.8187 64.0189 26.688C63.0375 25.5573 62.5469 23.904 62.5469 21.728V11.68H65.2669V21.696C65.2669 24.5547 66.4295 25.984 68.7549 25.984C70.1415 25.984 71.2509 25.472 72.0829 24.448C72.9149 23.4027 73.3309 22.0053 73.3309 20.256V11.68Z" fill="#010101"/>
<path d="M51.9681 5.40799C53.6748 5.40799 55.0721 5.73866 56.1601 6.39999C57.2694 7.06132 58.0694 7.91466 58.5601 8.95999C59.0721 9.98399 59.3281 11.0933 59.3281 12.288C59.3281 14.208 58.7308 15.8293 57.5361 17.152C56.3414 18.4747 54.4534 19.136 51.8721 19.136H45.5361V28H42.4961V5.40799H51.9681ZM51.0401 16.576C53.0241 16.576 54.3894 16.1813 55.1361 15.392C55.9041 14.5813 56.2881 13.536 56.2881 12.256C56.2881 10.976 55.8828 9.94132 55.0721 9.15199C54.2828 8.36266 52.9708 7.96799 51.1361 7.96799H45.5361V16.576H51.0401Z" fill="#010101"/>
</svg>
